<svg width="1500" height="933" viewBox="0 0 1500 933" xmlns="http://www.w3.org/2000/svg" xmlns:xlink="http://www.w3.org/1999/xlink"><title>Page 1</title><defs><path id="a" d="M1505 118.526V.01H.001v118.517H1505z"/><path id="c" d="M1505 118.526V.01H.001v118.517H1505z"/><path id="e" d="M1505 118.526V.01H.001v118.517H1505z"/><path id="g" d="M1505 118.526V.01H.001v118.517H1505z"/><path id="i" d="M1505 118.526V.01H.001v118.517H1505z"/><path id="k" d="M1505 118.526V.01H.001v118.517H1505z"/><path id="m" d="M1505 118.526V.01H.001v118.517H1505z"/><path id="o" d="M1505 118.526V.01H.001v118.517H1505z"/><path id="q" d="M1505 118.526V.01H.001v118.517H1505z"/></defs><g style="mix-blend-mode:multiply" fill="none" fill-rule="evenodd" opacity=".172"><path fill="#DAF5EA" d="M-4 1505.494h1505V.508H-4z"/><g transform="translate(-4 65.218)"><mask id="b" fill="#fff"><use xlink:href="#a"/></mask><path d="M1316.304.009c-35.335 0-65.076 17.23-93.839 33.89-28.713 16.634-58.406 33.834-93.628 33.834-35.14 0-64.941-17.14-93.757-33.717C1006.013 17.298 975.956.01 940.215.01c-35.666 0-65.412 17.237-94.175 33.904-28.696 16.628-58.364 33.82-93.865 33.82-35.503 0-65.171-17.192-93.867-33.82C629.543 17.246 599.798.01 564.13.01c-35.834 0-66.117 17.355-95.404 34.138-28.813 16.512-58.605 33.586-93.292 33.586-34.929 0-65.122-17.255-94.319-33.94C252.051 17.183 221.996.009 187.391.009c-34.607 0-64.494 17.174-93.4 33.784C64.957 50.478 34.93 67.733.001 67.733v50.793c35.097 0 65.194-17.297 94.304-34.023 28.83-16.57 58.647-33.701 93.086-33.701 34.44 0 64.42 17.134 93.413 33.701 29.267 16.726 59.533 34.023 94.63 34.023 34.853 0 64.722-17.117 93.606-33.669 29.214-16.743 59.424-34.055 95.09-34.055 35.5 0 65.17 17.192 93.865 33.82 28.765 16.667 58.51 33.904 94.18 33.904 35.666 0 65.412-17.237 94.178-33.905 28.693-16.627 58.361-33.82 93.862-33.82 35.576 0 65.558 17.245 94.552 33.923 28.888 16.618 58.762 33.802 94.07 33.802 35.387 0 65.154-17.245 93.942-33.917 28.692-16.62 58.361-33.807 93.525-33.807 35.34 0 65.719 17.315 95.099 34.058 29.041 16.552 59.071 33.666 93.598 33.666V67.733c-34.361 0-64.316-17.074-93.29-33.584C1382.263 17.364 1351.81.01 1316.304.01" fill="#BCD9CC" mask="url(#b)"/></g><path d="M1409.034.509h-193.548c-27.795 16.078-56.643 32.11-90.651 32.11-34.005 0-63.007-16.052-90.957-32.11H839.083c-27.78 16.073-56.623 32.11-90.91 32.11-34.283 0-63.127-16.035-90.909-32.11H462.148c-28.013 16.035-57.06 32.11-90.713 32.11-33.655 0-62.907-16.017-91.113-32.11H86.803C58.754 16.602 29.658 32.619-4 32.619v50.795c35.096 0 65.196-17.297 94.306-34.025 28.83-16.567 58.644-33.7 93.084-33.7 34.442 0 64.421 17.133 93.413 33.702 29.27 16.726 59.535 34.023 94.632 34.023 34.853 0 64.72-17.117 93.603-33.669 29.217-16.743 59.427-34.055 95.09-34.055 35.501 0 65.172 17.192 93.865 33.82 28.766 16.667 58.512 33.904 94.18 33.904 35.67 0 65.413-17.237 94.179-33.905 28.695-16.627 58.363-33.82 93.864-33.82 35.576 0 65.558 17.245 94.549 33.923 28.891 16.618 58.763 33.802 94.07 33.802 35.39 0 65.157-17.245 93.942-33.92 28.695-16.62 58.364-33.804 93.528-33.804 35.338 0 65.719 17.315 95.099 34.058 29.041 16.552 59.069 33.666 93.596 33.666V32.62c-33.339 0-62.528-16.076-90.697-32.111h-1.269z" fill="#BCD9CC"/><g transform="translate(-4 165.55)"><mask id="d" fill="#fff"><use xlink:href="#c"/></mask><path d="M1316.304.009c-35.335 0-65.076 17.23-93.839 33.89-28.713 16.634-58.406 33.834-93.628 33.834-35.14 0-64.941-17.14-93.757-33.717C1006.013 17.298 975.956.01 940.215.01c-35.666 0-65.412 17.237-94.175 33.904-28.696 16.628-58.364 33.82-93.865 33.82-35.503 0-65.171-17.192-93.867-33.82C629.543 17.246 599.798.01 564.13.01c-35.834 0-66.117 17.355-95.404 34.138-28.813 16.512-58.605 33.586-93.292 33.586-34.929 0-65.122-17.255-94.319-33.94C252.051 17.183 221.996.009 187.391.009c-34.607 0-64.494 17.174-93.4 33.784C64.957 50.478 34.93 67.733.001 67.733v50.793c35.097 0 65.194-17.295 94.304-34.023 28.83-16.57 58.647-33.701 93.086-33.701 34.44 0 64.42 17.134 93.413 33.701 29.267 16.728 59.533 34.023 94.63 34.023 34.853 0 64.722-17.117 93.606-33.669 29.214-16.743 59.424-34.055 95.09-34.055 35.5 0 65.17 17.194 93.865 33.82 28.765 16.667 58.51 33.904 94.18 33.904 35.666 0 65.412-17.237 94.178-33.905 28.693-16.625 58.361-33.82 93.862-33.82 35.576 0 65.558 17.248 94.552 33.923 28.888 16.618 58.762 33.802 94.07 33.802 35.387 0 65.154-17.242 93.942-33.917 28.692-16.62 58.361-33.807 93.525-33.807 35.34 0 65.719 17.315 95.099 34.058 29.041 16.552 59.071 33.666 93.598 33.666V67.733c-34.361 0-64.316-17.074-93.29-33.584C1382.263 17.364 1351.81.01 1316.304.01" fill="#BCD9CC" mask="url(#d)"/></g><g transform="translate(-4 265.883)"><mask id="f" fill="#fff"><use xlink:href="#e"/></mask><path d="M1316.304.009c-35.335 0-65.076 17.23-93.839 33.89-28.713 16.634-58.406 33.834-93.628 33.834-35.14 0-64.941-17.142-93.757-33.717C1006.013 17.298 975.956.01 940.215.01c-35.666 0-65.412 17.237-94.175 33.904-28.696 16.625-58.364 33.82-93.865 33.82-35.503 0-65.171-17.195-93.867-33.82C629.543 17.246 599.798.01 564.13.01c-35.834 0-66.117 17.355-95.404 34.138-28.813 16.512-58.605 33.586-93.292 33.586-34.929 0-65.122-17.255-94.319-33.94C252.051 17.183 221.996.009 187.391.009c-34.607 0-64.494 17.174-93.4 33.784C64.957 50.478 34.93 67.733.001 67.733v50.793c35.097 0 65.194-17.297 94.304-34.023 28.83-16.57 58.647-33.701 93.086-33.701 34.44 0 64.42 17.134 93.413 33.701 29.267 16.726 59.533 34.023 94.63 34.023 34.853 0 64.722-17.117 93.606-33.669 29.214-16.743 59.424-34.055 95.09-34.055 35.5 0 65.17 17.192 93.865 33.82 28.765 16.667 58.51 33.904 94.18 33.904 35.666 0 65.412-17.237 94.178-33.905 28.693-16.627 58.361-33.82 93.862-33.82 35.576 0 65.558 17.245 94.552 33.923 28.888 16.618 58.762 33.802 94.07 33.802 35.387 0 65.154-17.245 93.942-33.917 28.692-16.62 58.361-33.807 93.525-33.807 35.34 0 65.719 17.315 95.099 34.058 29.041 16.552 59.071 33.666 93.598 33.666V67.733c-34.361 0-64.316-17.074-93.29-33.584C1382.263 17.364 1351.81.01 1316.304.01" fill="#BCD9CC" mask="url(#f)"/></g><g transform="translate(-4 366.215)"><mask id="h" fill="#fff"><use xlink:href="#g"/></mask><path d="M1316.304.009c-35.335 0-65.076 17.23-93.839 33.89-28.713 16.634-58.406 33.834-93.628 33.834-35.14 0-64.941-17.142-93.757-33.717C1006.013 17.298 975.956.01 940.215.01c-35.666 0-65.412 17.237-94.175 33.904-28.696 16.625-58.364 33.82-93.865 33.82-35.503 0-65.171-17.195-93.867-33.82C629.543 17.246 599.798.01 564.13.01c-35.834 0-66.117 17.355-95.404 34.138-28.813 16.512-58.605 33.586-93.292 33.586-34.929 0-65.122-17.255-94.319-33.94C252.051 17.183 221.996.009 187.391.009c-34.607 0-64.494 17.174-93.4 33.784C64.957 50.478 34.93 67.733.001 67.733v50.793c35.097 0 65.194-17.297 94.304-34.023 28.83-16.57 58.647-33.701 93.086-33.701 34.44 0 64.42 17.134 93.413 33.701 29.267 16.726 59.533 34.023 94.63 34.023 34.853 0 64.722-17.117 93.606-33.669 29.214-16.743 59.424-34.055 95.09-34.055 35.5 0 65.17 17.192 93.865 33.82 28.765 16.667 58.51 33.904 94.18 33.904 35.666 0 65.412-17.237 94.178-33.905 28.693-16.627 58.361-33.82 93.862-33.82 35.576 0 65.558 17.245 94.552 33.923 28.888 16.618 58.762 33.802 94.07 33.802 35.387 0 65.154-17.245 93.942-33.917 28.692-16.62 58.361-33.807 93.525-33.807 35.34 0 65.719 17.315 95.099 34.058 29.041 16.552 59.071 33.666 93.598 33.666V67.733c-34.361 0-64.316-17.074-93.29-33.584C1382.263 17.364 1351.81.01 1316.304.01" fill="#BCD9CC" mask="url(#h)"/></g><g transform="translate(-4 466.547)"><mask id="j" fill="#fff"><use xlink:href="#i"/></mask><path d="M1316.304.009c-35.335 0-65.076 17.23-93.839 33.89-28.713 16.634-58.406 33.834-93.628 33.834-35.14 0-64.941-17.142-93.757-33.717C1006.013 17.298 975.956.01 940.215.01c-35.666 0-65.412 17.237-94.175 33.904-28.696 16.625-58.364 33.82-93.865 33.82-35.503 0-65.171-17.195-93.867-33.82C629.543 17.246 599.798.01 564.13.01c-35.834 0-66.117 17.355-95.404 34.138-28.813 16.512-58.605 33.586-93.292 33.586-34.929 0-65.122-17.255-94.319-33.94C252.051 17.183 221.996.009 187.391.009c-34.607 0-64.494 17.174-93.4 33.784C64.957 50.478 34.93 67.733.001 67.733v50.793c35.097 0 65.194-17.297 94.304-34.023 28.83-16.57 58.647-33.701 93.086-33.701 34.44 0 64.42 17.134 93.413 33.701 29.267 16.726 59.533 34.023 94.63 34.023 34.853 0 64.722-17.117 93.606-33.669 29.214-16.743 59.424-34.055 95.09-34.055 35.5 0 65.17 17.192 93.865 33.82 28.765 16.667 58.51 33.904 94.18 33.904 35.666 0 65.412-17.237 94.178-33.905 28.693-16.627 58.361-33.82 93.862-33.82 35.576 0 65.558 17.245 94.552 33.923 28.888 16.618 58.762 33.802 94.07 33.802 35.387 0 65.154-17.245 93.942-33.917 28.692-16.62 58.361-33.807 93.525-33.807 35.34 0 65.719 17.315 95.099 34.058 29.041 16.552 59.071 33.666 93.598 33.666V67.733c-34.361 0-64.316-17.074-93.29-33.584C1382.263 17.364 1351.81.01 1316.304.01" fill="#BCD9CC" mask="url(#j)"/></g><g transform="translate(-4 566.88)"><mask id="l" fill="#fff"><use xlink:href="#k"/></mask><path d="M1316.304.009c-35.335 0-65.076 17.23-93.839 33.89-28.713 16.634-58.406 33.834-93.628 33.834-35.14 0-64.941-17.142-93.757-33.717C1006.013 17.298 975.956.01 940.215.01c-35.666 0-65.412 17.237-94.175 33.904-28.696 16.625-58.364 33.82-93.865 33.82-35.503 0-65.171-17.195-93.867-33.82C629.543 17.246 599.798.01 564.13.01c-35.834 0-66.117 17.355-95.404 34.138-28.813 16.512-58.605 33.586-93.292 33.586-34.929 0-65.122-17.255-94.319-33.94C252.051 17.183 221.996.009 187.391.009c-34.607 0-64.494 17.174-93.4 33.784C64.957 50.478 34.93 67.733.001 67.733v50.793c35.097 0 65.194-17.297 94.304-34.023 28.83-16.57 58.647-33.701 93.086-33.701 34.44 0 64.42 17.134 93.413 33.701 29.267 16.726 59.533 34.023 94.63 34.023 34.853 0 64.722-17.117 93.606-33.669 29.214-16.743 59.424-34.055 95.09-34.055 35.5 0 65.17 17.192 93.865 33.82 28.765 16.667 58.51 33.904 94.18 33.904 35.666 0 65.412-17.237 94.178-33.905 28.693-16.627 58.361-33.82 93.862-33.82 35.576 0 65.558 17.245 94.552 33.923 28.888 16.618 58.762 33.802 94.07 33.802 35.387 0 65.154-17.245 93.942-33.917 28.692-16.62 58.361-33.807 93.525-33.807 35.34 0 65.719 17.315 95.099 34.058 29.041 16.552 59.071 33.666 93.598 33.666V67.733c-34.361 0-64.316-17.074-93.29-33.584C1382.263 17.364 1351.81.01 1316.304.01" fill="#BCD9CC" mask="url(#l)"/></g><g transform="translate(-4 667.212)"><mask id="n" fill="#fff"><use xlink:href="#m"/></mask><path d="M1316.304.009c-35.335 0-65.076 17.23-93.839 33.89-28.713 16.634-58.406 33.834-93.628 33.834-35.14 0-64.941-17.142-93.757-33.717C1006.013 17.298 975.956.01 940.215.01c-35.666 0-65.412 17.237-94.175 33.904-28.696 16.625-58.364 33.82-93.865 33.82-35.503 0-65.171-17.195-93.867-33.82C629.543 17.246 599.798.01 564.13.01c-35.834 0-66.117 17.355-95.404 34.138-28.813 16.512-58.605 33.586-93.292 33.586-34.929 0-65.122-17.255-94.319-33.94C252.051 17.183 221.996.009 187.391.009c-34.607 0-64.494 17.174-93.4 33.784C64.957 50.478 34.93 67.733.001 67.733v50.793c35.097 0 65.194-17.297 94.304-34.023 28.83-16.57 58.647-33.701 93.086-33.701 34.44 0 64.42 17.134 93.413 33.701 29.267 16.726 59.533 34.023 94.63 34.023 34.853 0 64.722-17.117 93.606-33.669 29.214-16.743 59.424-34.055 95.09-34.055 35.5 0 65.17 17.192 93.865 33.82 28.765 16.667 58.51 33.904 94.18 33.904 35.666 0 65.412-17.234 94.178-33.905 28.693-16.627 58.361-33.82 93.862-33.82 35.576 0 65.558 17.245 94.552 33.923 28.888 16.618 58.762 33.802 94.07 33.802 35.387 0 65.154-17.242 93.942-33.917 28.692-16.62 58.361-33.807 93.525-33.807 35.34 0 65.719 17.315 95.099 34.058 29.041 16.552 59.071 33.666 93.598 33.666V67.733c-34.361 0-64.316-17.074-93.29-33.584C1382.263 17.364 1351.81.01 1316.304.01" fill="#BCD9CC" mask="url(#n)"/></g><g transform="translate(-4 767.544)"><mask id="p" fill="#fff"><use xlink:href="#o"/></mask><path d="M1316.304.009c-35.335 0-65.076 17.23-93.839 33.892-28.713 16.632-58.406 33.832-93.628 33.832-35.14 0-64.941-17.142-93.757-33.717C1006.013 17.298 975.956.01 940.215.01c-35.666 0-65.412 17.234-94.175 33.904-28.696 16.625-58.364 33.82-93.865 33.82-35.503 0-65.171-17.195-93.867-33.82C629.543 17.243 599.798.01 564.13.01c-35.834 0-66.117 17.355-95.404 34.138-28.813 16.512-58.605 33.586-93.292 33.586-34.929 0-65.122-17.255-94.319-33.94C252.051 17.186 221.996.009 187.391.009c-34.607 0-64.494 17.177-93.4 33.784C64.957 50.478 34.93 67.733.001 67.733v50.793c35.097 0 65.194-17.297 94.304-34.023 28.83-16.57 58.647-33.701 93.086-33.701 34.44 0 64.42 17.132 93.413 33.701 29.267 16.726 59.533 34.023 94.63 34.023 34.853 0 64.722-17.117 93.606-33.669 29.214-16.743 59.424-34.055 95.09-34.055 35.5 0 65.17 17.192 93.865 33.82 28.765 16.667 58.51 33.904 94.18 33.904 35.666 0 65.412-17.234 94.178-33.905 28.693-16.627 58.361-33.82 93.862-33.82 35.576 0 65.558 17.248 94.552 33.923 28.888 16.618 58.762 33.802 94.07 33.802 35.387 0 65.154-17.242 93.942-33.917 28.692-16.62 58.361-33.807 93.525-33.807 35.34 0 65.719 17.312 95.099 34.058 29.041 16.552 59.071 33.666 93.598 33.666V67.733c-34.361 0-64.316-17.074-93.29-33.584C1382.263 17.364 1351.81.01 1316.304.01" fill="#BCD9CC" mask="url(#p)"/></g><g transform="translate(-4 867.876)"><mask id="r" fill="#fff"><use xlink:href="#q"/></mask><path d="M1316.304.009c-35.335 0-65.076 17.23-93.839 33.892-28.713 16.632-58.406 33.832-93.628 33.832-35.14 0-64.941-17.142-93.757-33.717C1006.013 17.298 975.956.01 940.215.01c-35.666 0-65.412 17.234-94.175 33.904-28.696 16.628-58.364 33.82-93.865 33.82-35.503 0-65.171-17.192-93.867-33.82C629.543 17.243 599.798.01 564.13.01c-35.834 0-66.117 17.355-95.404 34.138-28.813 16.512-58.605 33.586-93.292 33.586-34.929 0-65.122-17.255-94.319-33.94C252.051 17.186 221.996.009 187.391.009c-34.607 0-64.494 17.177-93.4 33.784C64.957 50.478 34.93 67.733.001 67.733v50.793c35.097 0 65.194-17.295 94.304-34.023 28.83-16.57 58.647-33.701 93.086-33.701 34.44 0 64.42 17.132 93.413 33.701 29.267 16.728 59.533 34.023 94.63 34.023 34.853 0 64.722-17.117 93.606-33.669 29.214-16.743 59.424-34.055 95.09-34.055 35.5 0 65.17 17.194 93.865 33.82 28.765 16.667 58.51 33.904 94.18 33.904 35.666 0 65.412-17.234 94.178-33.905 28.693-16.625 58.361-33.82 93.862-33.82 35.576 0 65.558 17.248 94.552 33.923 28.888 16.618 58.762 33.802 94.07 33.802 35.387 0 65.154-17.242 93.942-33.917 28.692-16.62 58.361-33.807 93.525-33.807 35.34 0 65.719 17.312 95.099 34.058 29.041 16.552 59.071 33.666 93.598 33.666V67.733c-34.361 0-64.316-17.074-93.29-33.584C1382.263 17.364 1351.81.01 1316.304.01" fill="#BCD9CC" mask="url(#r)"/></g></g></svg>