<svg height="35" viewBox="0 0 35 35" width="35" xmlns="http://www.w3.org/2000/svg"><g fill="none"><g><path d="m7.66666667 10.5c2.17600607-1.32655246 4.03766133-1.66381156 6.13333333-1.5-.8242976.4882227-1.1648443.73554604-1.5333333.75.6636294.3003212 1.2766135.3228051 2.3.75-.0698558-.2023555.2025816-.1124197.7666666 0 1.0932423-2.72055675 3.250038-4.29443255 6.1333334-4.5l-9.9666667-6-9.96666667 6c2.81518603.20556745 4.92657555 1.71199143 6.13333334 4.5z" fill="#333"/><path d="m8.09215971 10.125c1.98359349-1.125 2.24474539-1.36879089 3.95784879-.88349677-.4508167.15441176.7982674.30996736.572859.68496736.5184392-.06617647 1.1270418-.04411765 1.8032668.11029411.27049.0661765.54098.1544118.8114701.2647059.3606533-.68382354.7663883-1.27941178 1.217205-1.80882354v-.77205882c-.135245-1.10294118-2.1864609-1.98529412-4.7335753-1.98529412-2.54711432 0-4.59833029.88235294-4.7335753 1.98529412v.77205882c.40573503.48529412.76638839 1.01470588 1.10450091 1.63235294z" fill="#535353"/><path d="m14.8387097 9.75c-.1540943.19772727-.4194789.08693182-.7419355 0-.6063896-.1125-1.203505-.13465909-1.483871 0-.007134-.44488636.3245968-.68863636.7419355-.75-1.6779156-.58125-3.49137716-.24886364-5.19354838.75-1.8584057-2.94886364-4.51225186-4.5-8.16129032-4.5v15.75l11.1290323 3.75 11.8709677-3.75v-15.75c-3.7375 0-6.4134615 1.59545455-8.1612903 4.5z" fill="#ff732b"/><g fill="#ffddcd"><path d="m0 21 11.1290323 3.75 11.8709677-3.75v2.25l-11.8709677 6.75-11.1290323-6.75z"/><path d="m1.57785844 17.4264706v-10.36764707c1.96105263 0 3.71923775 1.32352941 5.29709619 3.97058827.38319419.8161764.38319419 1.3235294 0 1.5441176-.56352087.3308824-1.23974592-.1102941-1.80326679-1.3235294-.60860254.5073529-.92417423 1.7647059-.94671506 3.75-.18032668-.5073529-.24794919-1.1029412-.18032668-1.7647059-1.75818512.6617647-1.71310345 2.7794118-2.36678766 4.1911765z"/><path d="m21.8646098 17.4264706v-10.36764707c-1.9610526 0-3.7192377 1.32352941-5.2970962 3.97058827 2.2540835 1.4779411 4.0122686 3.5955882 5.2970962 6.3970588z"/></g><ellipse cx="6.536842" cy="19.191177" fill="#fff" rx="2.254083" ry="2.205882"/><ellipse cx="17.356443" cy="19.191177" fill="#fff" rx="2.254083" ry="2.205882"/><ellipse cx="6.536842" cy="19.191177" fill="#333" rx="1.127042" ry="1.102941"/><ellipse cx="17.356443" cy="19.191177" fill="#333" rx="1.127042" ry="1.102941"/><ellipse cx="15.102359" cy="15.220588" fill="#ed4d14" rx="1.127042" ry="1"/><ellipse cx="8.340109" cy="15.220588" fill="#ed4d14" rx="1.127042" ry="1"/><path d="m12.8482759 27.0220588h-.7889293v-.8382353c.6987659-.2205882 1.239746-1.125 1.239746-1.5882353 0-.5514706-.6987659-.7720588-1.5778585-.7720588-.8790925 0-1.5778584.2205882-1.5778584.7720588 0 .4852942.54098 1.3676471 1.2397459 1.5882353v.8382353c-1.1721234-.0220588-2.47949184-.1985294-2.59219601-1.0367647-.02254084-.1764706-.20286751-.3088235-.38319419-.2867647s-.31557169.1985294-.29303086.375c.20286752 1.4558824 2.18646096 1.6102941 3.67415606 1.6102941h1.0594193c.1803266 0 .3381125-.1544117.3381125-.3308823s-.1577859-.3308824-.3381125-.3308824z" fill="#333"/><path d="m8.79092559 5.20588235v-3.52941176l-1.35245009.77205882v2.75735294c-.31557169.22058824-.5184392.57352941-.5184392.97058824 0 .6617647.54098003 1.16911765 1.19466424 1.16911765s1.19466425-.52941177 1.19466425-1.16911765c0-.39705883-.20286751-.77205883-.5184392-.97058824z" fill="#48a1e6"/></g><g transform="translate(18 18)"><path d="m15.5522183 6.70315789h-.7017544c-.066308-.35786354-.1600623-.70605847-.2787368-1.04252631l.6072203-.35059649c.1992046-.11505653.2674776-.36977778.1525146-.56904484l-.8646862-1.49766861c-.1150565-.19926706-.3697777-.26750877-.5690448-.15245224l-.6086238.35143859c-.2343236-.27334113-.4892631-.52831189-.7626355-.7625731l.3514074-.60865497c.1150566-.19923587.0467837-.4539883-.1525146-.56904483l-1.4976062-.86468616c-.1992671-.11505653-.4539883-.04678363-.569076.15245224l-.3506277.60722027c-.33640548-.11867446-.68460041-.21242885-1.04246396-.27876803v-.70166082c.00006238-.23008187-.18644834-.41659259-.41649902-.41659259h-1.72934113c-.23008187 0-.4165926.18651072-.4165926.41659259v.7017232c-.35786354.06637037-.70602729.16006238-1.04246393.27876803l-.35062768-.60722027c-.11502534-.19923587-.36977778-.26750877-.56907603-.15245224l-1.49760623.86468616c-.19926706.11502534-.26753997.36980896-.15251462.56904483l.3514074.60862378c-.27337232.23426121-.52831189.48923197-.7625731.7625731l-.60862378-.3514386c-.19920468-.11502534-.4539883-.04675243-.56907602.15251462l-.86459259 1.49766862c-.11505653.19923587-.04678363.45401949.15242105.56904483l.60722027.3505965c-.11864327.33646783-.21242885.68463158-.27873684 1.04249512h-.70175439c-.23005068 0-.4165614.18647954-.4165614.4165926v1.72927875c0 .23011306.18651072.41659259.41659259.41659259h.70175439c.06630799.35786355.16006238.70608967.27873684 1.04252629l-.60722027.3505653c-.19920468.1150566-.26747758.3698402-.15242105.5690449l.86459259 1.4976998c.11505653.199267.36984015.2674776.56907602.1525146l.60865497-.3514074c.23426121.2733099.48920078.5283119.76251072.7625731l-.35134503.6085926c-.11502534.199267-.04678362.4540818.15251462.569076l1.49763743.8646862c.19926706.1150565.45408187.0467836.56907602-.1525147l.35062768-.6071579c.33640546.1186433.68460039.2123353 1.04246394.2787369v.701692c0 .2300507.18651072.4165926.41659259.4165926h1.72934114c.23005068 0 .41659259-.1865107.41659259-.4165926v-.7017544c.35786355-.0663704.70602729-.1600624 1.04252632-.2787368l.3505653.6071579c.1150877.199267.3697778.2675399.569076.1525146l1.4976374-.8646862c.1992671-.1150253.26754-.3697778.1525147-.5690136l-.3513451-.608655c.27331-.2342612.5283119-.4892632.7625731-.7625731l.6085926.3514074c.1992671.1150254.4539883.0467213.5690449-.1525146l.8646861-1.4976998c.1150254-.1992047.0467213-.4539883-.1525146-.5690137l-.6072203-.3506276c.1186433-.3364055.2124289-.684694.2787369-1.04252636h.7017232c.2300507 0 .4165926-.18644834.4165926-.41659259v-1.72927875c-.000156-.23008187-.1866667-.41656141-.4167486-.41656141zm-3.770729 3.64304091-.5158363.6748694c-.8175594.8827135-1.98599608 1.4361638-3.28121635 1.4361638-2.466308 0-4.47279532-2.0064874-4.47279532-4.47279535 0-2.466308 2.00648732-4.47279532 4.47279532-4.47279532 2.46630795 0 4.47276415 2.00645614 4.47276415 4.47276413 0 .86637037-.2475478 1.67597661-.6757115 2.36179334z" fill="#48a1e6" stroke="#fff" stroke-width=".8"/><path d="m7.98440546 13.4986355c-3.04053022 0-5.51423002-2.4736998-5.51423002-5.51423004 0-3.04056141 2.4736998-5.51423002 5.51423002-5.51423002 3.04059264 0 5.51423004 2.47366861 5.51423004 5.51423002 0 3.04053024-2.4736374 5.51423004-5.51423004 5.51423004zm3.79708384-3.1524367c.4281637-.68581673.6757115-1.49542297.6757115-2.36179334 0-2.46630799-2.0064873-4.47279532-4.47279534-4.47279532-2.46630799 0-4.47276413 2.00648733-4.47276413 4.47279532 0 2.46630804 2.00648732 4.47279534 4.47279532 4.47279534 1.29525146 0 2.46368815-.5534191 3.28121635-1.4361638z" fill="#3183c2"/><path d="m9.82923977 7.89810526c-.00040546-.00873294-.00099805-.01743469-.00155946-.02613645-.00121637-.02036647-.00271345-.04067056-.00461598-.06088109-.0008733-.00929435-.00177778-.01855751-.00274464-.02782066-.00237037-.02189474-.00517739-.04363353-.0082963-.06530994-.00087329-.00633139-.00162183-.01269396-.00258869-.01899416-.0043041-.02772709-.00926316-.05526705-.01475244-.08258869-.00127875-.00620663-.00274464-.01235088-.00405458-.01852632-.00455361-.02127095-.0094191-.04244834-.01465887-.06346978-.00215205-.008577-.00439766-.017154-.00667446-.02569981-.00520858-.01955555-.01072905-.03892397-.01653022-.05816764-.0022768-.00761014-.00452241-.01522027-.00689278-.02276803-.001154-.00380507-.00224562-.0077037-.00346199-.01147758l-.00090449-.00149708c-.09194542-.28385185-.2505731-.53763743-.4576998-.74273684l-.00040546-.00068616c-.00960624-.00948148-.01964912-.01849513-.02947368-.02775829-.01038597-.00982456-.0205848-.01983625-.03112671-.0294113-.01104094-.00994932-.02245614-.01946199-.0337154-.02919298-.01110331-.00954386-.02205068-.01927486-.03337232-.0285692-.01132164-.00932554-.02311111-.01818324-.03465107-.02729045-.01166472-.00910722-.02311111-.01837037-.03496296-.02719688-.01185186-.00882651-.0240156-.01712281-.0360234-.02566862-.01207017-.00854581-.0239844-.01727875-.0362729-.02554386-.01210136-.00810916-.024577-.01578168-.0368655-.02367251-.01260039-.00804679-.02510721-.0163119-.03789473-.02407798-.01238207-.00745419-.02510722-.01440935-.03764523-.02161403-.01316179-.00754776-.02616764-.01531384-.03957895-.02254971-.01269395-.0068616-.02573099-.01319298-.03864327-.01977388-.01356725-.00695516-.02700975-.01409746-.04079532-.02070955-.0131618-.00633138-.02663548-.01203899-.03992203-.01808967-.01384795-.00623782-.02760234-.01272515-.04163743-.01868226-.01350487-.0057076-.02732163-.01079142-.04104483-.01618713-.01419103-.00558285-.02825731-.01141521-.04260429-.01665498-.01403509-.00511501-.02835088-.00960623-.0425731-.01440935-.01434698-.00483431-.02850682-.00994932-.04294737-.01440936-.01472124-.00455361-.02966082-.00842105-.04450682-.01263158-.01425341-.00402339-.02844444-.00835867-.0428538-.01207017-.01534503-.00396102-.03100195-.00717349-.04647174-.01072905-.01415984-.00327485-.02825731-.00683041-.0425731-.00976218-.01618713-.00330604-.03259259-.00589474-.04890448-.00873294-.01391033-.00243275-.02772709-.00523977-.04176218-.00739182-.01755946-.00268226-.03539961-.00458479-.0531462-.00676803-.01297466-.00159064-.02582456-.00358674-.0388616-.00489669-.02049123-.00208966-.04116959-.00330604-.06175439-.00470955-.01063547-.00071735-.02108382-.00184015-.03171929-.00240156-.03137622-.00155945-.06293957-.00240156-.09472125-.00240156-.0317193 0-.06331384.00081092-.09475244.00240156-.01063548.00056141-.02108382.00165303-.03165692.00240156-.02064717.0014347-.04135672.00265108-.06175438.00470955-.01306823.00130995-.02588694.00330605-.03883041.00489669-.01777778.00215205-.03558675.00408577-.05320858.00676803-.01403509.00215205-.02782066.00495907-.04169981.00739182-.01634308.0028382-.03274853.00545808-.04893567.00873294-.01431579.00290058-.02831969.00648733-.04251072.00976218-.01553216.00355556-.0311267.00676803-.04650292.01072905-.01444055.0037115-.0285692.00804678-.04282261.01207017-.01484601.00421053-.02981677.00807797-.04447564.01263158-.01450292.00449123-.02866277.00957505-.04297856.01440936-.01415984.00480312-.02847563.00926316-.04251072.01440935-.01431579.00520858-.02831969.01104094-.04244834.01662379-.01375439.0054269-.02766472.01051072-.04123197.01624951-.01394152.00589474-.02766472.01235088-.04145029.01861988-.01341131.00601949-.02691618.01175829-.04010916.01812086-.01375439.0065809-.02719688.01378557-.04076414.02070955-.01288109.00654971-.02591812.01291228-.03864327.01977388-.01338012.00723587-.02638597.01503314-.03957895.02254971-.01253801.00723587-.02526316.01415984-.03758284.02161403-.01284991.00776608-.02529435.01603119-.03789474.02407798-.01231969.00789083-.02482651.01553216-.03692788.02367251-.0122885.00826511-.02414035.01699805-.03624171.02554386-.01203899.00854581-.02420273.01684211-.03602339.02566862-.01185186.00882651-.02332944.01812085-.03493178.02719688-.01160234.00907602-.02332943.01793372-.03471345.02729045-.01132163.00929434-.02223781.01902534-.03327875.0285692-.01125926.00973099-.02267446.01924366-.0337154.02919298-.01063548.00957505-.02083431.01958674-.03118908.0294113-.00979338.00929435-.01986745.018308-.0294425.02775829l-.00049902.00068616c-.20709552.20509941-.36569201.4588538-.45766862.74273684l-.00093567.00149708c-.00121638.00377388-.00221443.00767251-.00346199.01147758-.00237037.00757895-.0045848.01522027-.00683041.02276803-.00583236.01927486-.01135283.03867447-.0165614.05816764-.00224562.00854581-.00455361.01709162-.00667447.02569981-.00523976.02105263-.01013645.04216764-.01465887.06346978-.00130994.00617544-.00280701.01231969-.00405458.01852632-.00552047.02732164-.01044834.0548616-.01475243.08258869-.00093568.00633139-.0017154.01266277-.00265108.01899416-.0031189.02167641-.00589473.0434152-.0082651.06530994-.00099805.00923197-.00190254.01849512-.00274464.02782066-.00187135.02021053-.0034308.04051462-.00464718.06088109-.00053021.00870176-.0011228.01740351-.00152826.02613645-.00130994.02863158-.00218324.05735673-.00218324.0863002 0 1.02010136.82691618 1.84704873 1.84698636 1.84704873 1.02007017 0 1.84698635-.82691618 1.84698635-1.84704873-.00003119-.02894347-.0008421-.05769981-.00218323-.0863002z" fill="#48a1e6"/></g></g></svg>